:FULLY-SPECIFIED
:FORCE-ALL-JOINTS-BE-3DOF
:DEGREES
577
root 7.06056 16.1345 -3.49456 -158.579 74.4519 -164.641
lfemur -19.2263 4.23513 -18.1913
ltibia 50.6298 0 0
lfoot -34.4322 5.4375 0
ltoes -1.46122 0 0
rfemur -47.0267 -9.34095 10.6415
rtibia 44.855 0 0
rfoot 12.2314 9.60396 0
rtoes -29.2515 0 0
lowerback 6.6983 -0.887327 -2.85764
upperback 2.69459 -1.15519 3.44841
thorax -0.831261 -0.560112 5.26176
lowerneck -4.61632 -13.7008 -4.17993
upperneck 10.5597 -18.6529 5.85932
head 4.87564 -8.99012 1.27399
lclavicle 2.31212e-14 -1.80823e-14 0
lhumerus -37.2457 -17.681 93.2064
lradius 54.0161 0 0
lwrist 22.7228 0 0
lhand -21.3358 -4.40414 0
lfingers 7.12502 0 0
lthumb 5.0501 25.5116 0
rclavicle 2.31212e-14 -1.80823e-14 0
rhumerus 25.3462 17.0647 -74.4378
rradius 134.024 0 0
rwrist -44.038 0 0
rhand -26.326 -20.5888 0
rfingers 7.12502 0 0
rthumb 0.23093 -770.568 0
578
root 7.00319 16.1559 -3.48755 -157.026 75.363 -163.04
lfemur -19.0348 4.35645 -18.2483
ltibia 50.1251 0 0
lfoot -34.2163 6.01389 0
ltoes -1.17032 0 0
rfemur -47.0287 -9.63085 11.0026
rtibia 45.9717 0 0
rfoot 12.1842 9.4989 0
rtoes -28.3687 0 0
lowerback 6.54926 -0.90307 -3.01649
upperback 2.6457 -1.19067 3.36366
thorax -0.793262 -0.581191 5.26295
lowerneck -4.68835 -13.6597 -4.15059
upperneck 10.6937 -18.6118 5.88669
head 4.9269 -8.96172 1.2709
lclavicle 2.20237e-14 -1.61157e-14 0
lhumerus -36.3491 -18.3533 92.5579
lradius 53.94 0 0
lwrist 22.8721 0 0
lhand -21.2047 -4.22271 0
lfingers 7.12502 0 0
lthumb 5.17665 25.6899 0
rclavicle 2.20237e-14 -1.61157e-14 0
rhumerus 25.3653 17.0282 -74.3124
rradius 134.021 0 0
rwrist -44.0498 0 0
rhand -26.2701 -20.4715 0
rfingers 7.12502 0 0
rthumb 0.284931 -770.451 0
579
root 6.94582 16.1774 -3.48053 -155.474 76.2742 -161.438
lfemur -18.8434 4.47778 -18.3052
ltibia 49.6203 0 0
lfoot -34.0004 6.59028 0
ltoes -0.879428 0 0
rfemur -47.0307 -9.92074 11.3638
rtibia 47.0885 0 0
rfoot 12.137 9.39384 0
rtoes -27.4859 0 0
lowerback 6.40022 -0.918814 -3.17535
upperback 2.59681 -1.22616 3.27891
thorax -0.755264 -0.60227 5.26415
lowerneck -4.76037 -13.6185 -4.12126
upperneck 10.8277 -18.5708 5.91407
head 4.97815 -8.93331 1.26781
lclavicle 2.09263e-14 -1.41492e-14 0
lhumerus -35.4525 -19.0256 91.9094
lradius 53.864 0 0
lwrist 23.0213 0 0
lhand -21.0736 -4.04128 0
lfingers 7.12502 0 0
lthumb 5.30321 25.8681 0
rclavicle 2.09263e-14 -1.41492e-14 0
rhumerus 25.3844 16.9917 -74.187
rradius 134.017 0 0
rwrist -44.0617 0 0
rhand -26.2141 -20.3543 0
rfingers 7.12502 0 0
rthumb 0.338933 -770.333 0
580
root 6.88845 16.1988 -3.47352 -153.921 77.1853 -159.837
lfemur -18.6519 4.5991 -18.3622
ltibia 49.1156 0 0
lfoot -33.7845 7.16667 0
ltoes -0.588533 0 0
rfemur -47.0327 -10.2106 11.725
rtibia 48.2052 0 0
rfoot 12.0898 9.28878 0
rtoes -26.6031 0 0
lowerback 6.25118 -0.934557 -3.3342
upperback 2.54792 -1.26164 3.19416
thorax -0.717265 -0.623349 5.26534
lowerneck -4.8324 -13.5774 -4.09192
upperneck 10.9617 -18.5297 5.94144
head 5.02941 -8.90491 1.26472
lclavicle 1.98288e-14 -1.21826e-14 0
lhumerus -34.5559 -19.6979 91.2609
lradius 53.7879 0 0
lwrist 23.1706 0 0
lhand -20.9425 -3.85985 0
lfingers 7.12502 0 0
lthumb 5.42976 26.0464 0
rclavicle 1.98288e-14 -1.21826e-14 0
rhumerus 25.4035 16.9552 -74.0616
rradius 134.014 0 0
rwrist -44.0735 0 0
rhand -26.1582 -20.237 0
rfingers 7.12502 0 0
rthumb 0.392934 -770.216 0
